<svg id="visual" viewBox="0 0 1920 1080" width="1920" height="1080" xmlns="http://www.w3.org/2000/svg" xmlns:xlink="http://www.w3.org/1999/xlink" version="1.1"><rect x="0" y="0" width="1920" height="1080" fill="#000407"></rect><defs><linearGradient id="grad1_0" x1="43.8%" y1="0%" x2="100%" y2="100%"><stop offset="14.444444444444446%" stop-color="#673ea5" stop-opacity="1"></stop><stop offset="85.55555555555554%" stop-color="#673ea5" stop-opacity="1"></stop></linearGradient></defs><defs><linearGradient id="grad1_1" x1="43.8%" y1="0%" x2="100%" y2="100%"><stop offset="14.444444444444446%" stop-color="#673ea5" stop-opacity="1"></stop><stop offset="85.55555555555554%" stop-color="#002e5c" stop-opacity="1"></stop></linearGradient></defs><defs><linearGradient id="grad1_2" x1="43.8%" y1="0%" x2="100%" y2="100%"><stop offset="14.444444444444446%" stop-color="#000407" stop-opacity="1"></stop><stop offset="85.55555555555554%" stop-color="#002e5c" stop-opacity="1"></stop></linearGradient></defs><defs><linearGradient id="grad2_0" x1="0%" y1="0%" x2="56.3%" y2="100%"><stop offset="14.444444444444446%" stop-color="#673ea5" stop-opacity="1"></stop><stop offset="85.55555555555554%" stop-color="#673ea5" stop-opacity="1"></stop></linearGradient></defs><defs><linearGradient id="grad2_1" x1="0%" y1="0%" x2="56.3%" y2="100%"><stop offset="14.444444444444446%" stop-color="#002e5c" stop-opacity="1"></stop><stop offset="85.55555555555554%" stop-color="#673ea5" stop-opacity="1"></stop></linearGradient></defs><defs><linearGradient id="grad2_2" x1="0%" y1="0%" x2="56.3%" y2="100%"><stop offset="14.444444444444446%" stop-color="#002e5c" stop-opacity="1"></stop><stop offset="85.55555555555554%" stop-color="#000407" stop-opacity="1"></stop></linearGradient></defs><g transform="translate(1920, 0)"><path d="M0 594C-62.7 508.2 -125.5 422.4 -221.5 383.6C-317.5 344.9 -446.8 353.1 -514.4 297C-582 240.9 -588 120.4 -594 0L0 0Z" fill="#001d32"></path><path d="M0 396C-41.8 338.8 -83.7 281.6 -147.7 255.8C-211.7 229.9 -297.9 235.4 -342.9 198C-388 160.6 -392 80.3 -396 0L0 0Z" fill="#293a85"></path><path d="M0 198C-20.9 169.4 -41.8 140.8 -73.8 127.9C-105.8 115 -148.9 117.7 -171.5 99C-194 80.3 -196 40.1 -198 0L0 0Z" fill="#673ea5"></path></g><g transform="translate(0, 1080)"><path d="M0 -594C35.5 -461.1 71.1 -328.2 170.5 -295.3C269.9 -262.4 433.2 -329.6 514.4 -297C595.6 -264.4 594.8 -132.2 594 0L0 0Z" fill="#001d32"></path><path d="M0 -396C23.7 -307.4 47.4 -218.8 113.7 -196.9C179.9 -175 288.8 -219.7 342.9 -198C397.1 -176.3 396.5 -88.1 396 0L0 0Z" fill="#293a85"></path><path d="M0 -198C11.8 -153.7 23.7 -109.4 56.8 -98.4C90 -87.5 144.4 -109.9 171.5 -99C198.5 -88.1 198.3 -44.1 198 0L0 0Z" fill="#673ea5"></path></g></svg>