<svg id="visual" viewBox="0 0 1920 1080" width="1920" height="1080" xmlns="http://www.w3.org/2000/svg" xmlns:xlink="http://www.w3.org/1999/xlink" version="1.1"><rect x="0" y="0" width="1920" height="1080" fill="#000407"></rect><defs><linearGradient id="grad1_0" x1="43.8%" y1="100%" x2="100%" y2="0%"><stop offset="14.444444444444446%" stop-color="#673ea5" stop-opacity="1"></stop><stop offset="85.55555555555554%" stop-color="#673ea5" stop-opacity="1"></stop></linearGradient></defs><defs><linearGradient id="grad1_1" x1="43.8%" y1="100%" x2="100%" y2="0%"><stop offset="14.444444444444446%" stop-color="#673ea5" stop-opacity="1"></stop><stop offset="85.55555555555554%" stop-color="#002e5c" stop-opacity="1"></stop></linearGradient></defs><defs><linearGradient id="grad1_2" x1="43.8%" y1="100%" x2="100%" y2="0%"><stop offset="14.444444444444446%" stop-color="#000407" stop-opacity="1"></stop><stop offset="85.55555555555554%" stop-color="#002e5c" stop-opacity="1"></stop></linearGradient></defs><defs><linearGradient id="grad2_0" x1="0%" y1="100%" x2="56.3%" y2="0%"><stop offset="14.444444444444446%" stop-color="#673ea5" stop-opacity="1"></stop><stop offset="85.55555555555554%" stop-color="#673ea5" stop-opacity="1"></stop></linearGradient></defs><defs><linearGradient id="grad2_1" x1="0%" y1="100%" x2="56.3%" y2="0%"><stop offset="14.444444444444446%" stop-color="#002e5c" stop-opacity="1"></stop><stop offset="85.55555555555554%" stop-color="#673ea5" stop-opacity="1"></stop></linearGradient></defs><defs><linearGradient id="grad2_2" x1="0%" y1="100%" x2="56.3%" y2="0%"><stop offset="14.444444444444446%" stop-color="#002e5c" stop-opacity="1"></stop><stop offset="85.55555555555554%" stop-color="#000407" stop-opacity="1"></stop></linearGradient></defs><g transform="translate(1920, 1080)"><path d="M-594 0C-508.2 -62.7 -422.4 -125.5 -383.6 -221.5C-344.9 -317.5 -353.1 -446.8 -297 -514.4C-240.9 -582 -120.4 -588 0 -594L0 0Z" fill="#001d32"></path><path d="M-396 0C-338.8 -41.8 -281.6 -83.7 -255.8 -147.7C-229.9 -211.7 -235.4 -297.9 -198 -342.9C-160.6 -388 -80.3 -392 0 -396L0 0Z" fill="#293a85"></path><path d="M-198 0C-169.4 -20.9 -140.8 -41.8 -127.9 -73.8C-115 -105.8 -117.7 -148.9 -99 -171.5C-80.3 -194 -40.1 -196 0 -198L0 0Z" fill="#673ea5"></path></g><g transform="translate(0, 0)"><path d="M594 0C461.1 35.5 328.2 71.1 295.3 170.5C262.4 269.9 329.6 433.2 297 514.4C264.4 595.6 132.2 594.8 0 594L0 0Z" fill="#001d32"></path><path d="M396 0C307.4 23.7 218.8 47.4 196.9 113.7C175 179.9 219.7 288.8 198 342.9C176.3 397.1 88.1 396.5 0 396L0 0Z" fill="#293a85"></path><path d="M198 0C153.7 11.8 109.4 23.7 98.4 56.8C87.5 90 109.9 144.4 99 171.5C88.1 198.5 44.1 198.3 0 198L0 0Z" fill="#673ea5"></path></g></svg>