<svg id="visual" viewBox="0 0 1920 1080" width="1920" height="1080" xmlns="http://www.w3.org/2000/svg" xmlns:xlink="http://www.w3.org/1999/xlink" version="1.1"><rect x="0" y="0" width="1920" height="1080" fill="#000407"></rect><path d="M0 757L16 760.3C32 763.7 64 770.3 96 760.5C128 750.7 160 724.3 192 730.3C224 736.3 256 774.7 288 782.5C320 790.3 352 767.7 384 731.7C416 695.7 448 646.3 480 633.7C512 621 544 645 576 657.7C608 670.3 640 671.7 672 700.8C704 730 736 787 768 786.3C800 785.7 832 727.3 864 715.2C896 703 928 737 960 769.2C992 801.3 1024 831.7 1056 840.2C1088 848.7 1120 835.3 1152 815.8C1184 796.3 1216 770.7 1248 736.7C1280 702.7 1312 660.3 1344 676.3C1376 692.3 1408 766.7 1440 786.8C1472 807 1504 773 1536 763.7C1568 754.3 1600 769.7 1632 772.8C1664 776 1696 767 1728 744.7C1760 722.3 1792 686.7 1824 684.8C1856 683 1888 715 1904 731L1920 747L1920 1081L1904 1081C1888 1081 1856 1081 1824 1081C1792 1081 1760 1081 1728 1081C1696 1081 1664 1081 1632 1081C1600 1081 1568 1081 1536 1081C1504 1081 1472 1081 1440 1081C1408 1081 1376 1081 1344 1081C1312 1081 1280 1081 1248 1081C1216 1081 1184 1081 1152 1081C1120 1081 1088 1081 1056 1081C1024 1081 992 1081 960 1081C928 1081 896 1081 864 1081C832 1081 800 1081 768 1081C736 1081 704 1081 672 1081C640 1081 608 1081 576 1081C544 1081 512 1081 480 1081C448 1081 416 1081 384 1081C352 1081 320 1081 288 1081C256 1081 224 1081 192 1081C160 1081 128 1081 96 1081C64 1081 32 1081 16 1081L0 1081Z" fill="#271641"></path><path d="M0 795L16 793.8C32 792.7 64 790.3 96 804.8C128 819.3 160 850.7 192 868.2C224 885.7 256 889.3 288 875.7C320 862 352 831 384 802C416 773 448 746 480 749.8C512 753.7 544 788.3 576 789C608 789.7 640 756.3 672 754.2C704 752 736 781 768 815.2C800 849.3 832 888.7 864 893.5C896 898.3 928 868.7 960 842C992 815.3 1024 791.7 1056 797.2C1088 802.7 1120 837.3 1152 853.5C1184 869.7 1216 867.3 1248 848.2C1280 829 1312 793 1344 794.7C1376 796.3 1408 835.7 1440 828.5C1472 821.3 1504 767.7 1536 770C1568 772.3 1600 830.7 1632 833.2C1664 835.7 1696 782.3 1728 773.2C1760 764 1792 799 1824 822.7C1856 846.3 1888 858.7 1904 864.8L1920 871L1920 1081L1904 1081C1888 1081 1856 1081 1824 1081C1792 1081 1760 1081 1728 1081C1696 1081 1664 1081 1632 1081C1600 1081 1568 1081 1536 1081C1504 1081 1472 1081 1440 1081C1408 1081 1376 1081 1344 1081C1312 1081 1280 1081 1248 1081C1216 1081 1184 1081 1152 1081C1120 1081 1088 1081 1056 1081C1024 1081 992 1081 960 1081C928 1081 896 1081 864 1081C832 1081 800 1081 768 1081C736 1081 704 1081 672 1081C640 1081 608 1081 576 1081C544 1081 512 1081 480 1081C448 1081 416 1081 384 1081C352 1081 320 1081 288 1081C256 1081 224 1081 192 1081C160 1081 128 1081 96 1081C64 1081 32 1081 16 1081L0 1081Z" fill="#462971"></path><path d="M0 996L16 975.2C32 954.3 64 912.7 96 892.8C128 873 160 875 192 888.3C224 901.7 256 926.3 288 922.8C320 919.3 352 887.7 384 881C416 874.3 448 892.7 480 915.3C512 938 544 965 576 954.3C608 943.7 640 895.3 672 887C704 878.7 736 910.3 768 929C800 947.7 832 953.3 864 956.5C896 959.7 928 960.3 960 942.8C992 925.3 1024 889.7 1056 882.8C1088 876 1120 898 1152 913.2C1184 928.3 1216 936.7 1248 926.3C1280 916 1312 887 1344 889C1376 891 1408 924 1440 924.8C1472 925.7 1504 894.3 1536 896C1568 897.7 1600 932.3 1632 928.8C1664 925.3 1696 883.7 1728 871.8C1760 860 1792 878 1824 889C1856 900 1888 904 1904 906L1920 908L1920 1081L1904 1081C1888 1081 1856 1081 1824 1081C1792 1081 1760 1081 1728 1081C1696 1081 1664 1081 1632 1081C1600 1081 1568 1081 1536 1081C1504 1081 1472 1081 1440 1081C1408 1081 1376 1081 1344 1081C1312 1081 1280 1081 1248 1081C1216 1081 1184 1081 1152 1081C1120 1081 1088 1081 1056 1081C1024 1081 992 1081 960 1081C928 1081 896 1081 864 1081C832 1081 800 1081 768 1081C736 1081 704 1081 672 1081C640 1081 608 1081 576 1081C544 1081 512 1081 480 1081C448 1081 416 1081 384 1081C352 1081 320 1081 288 1081C256 1081 224 1081 192 1081C160 1081 128 1081 96 1081C64 1081 32 1081 16 1081L0 1081Z" fill="#673ea5"></path></svg>